<svg xmlns="http://www.w3.org/2000/svg" viewBox="0 0 170 32" fill="white">
  <!-- F -->
  <path d="M4,4h12v3.5H8v7h7v3.5H8V28H4V4z"/>
  <!-- o -->
  <path d="M22,10.5c5,0,8,3.8,8,8.8S27,28.2,22,28.2s-8-3.8-8-8.8S17,10.5,22,10.5zm0,3.5c-2.5,0-4.2,2.2-4.2,5.3s1.7,5.3,4.2,5.3,4.2-2.2,4.2-5.3S24.5,14,22,14z"/>
  <!-- r -->
  <path d="M33,11h3.5v3c1-2.2,2.8-3.5,5-3.5v4c-3,0-5,1.5-5,5V28H33V11z"/>
  <!-- w -->
  <path d="M44,11h3.8l3.2,12,3.5-12h3.5l3.5,12,3.2-12H68.5l-5,17h-3.8l-3.5-12-3.5,12h-3.8L44,11z"/>
  <!-- a -->
  <path d="M73,10.5c4.5,0,7,3,7,8v1H70c.3,2.5,2,4,4.5,4,2,0,3.2-.8,4-2l3,1.5c-1.5,2.5-4,4-7,4-5,0-8.2-3.8-8.2-8.5S68,10.5,73,10.5zm3.2,6.5c-.2-2.2-1.5-3.8-3.5-3.8s-3.2,1.5-3.5,3.8h7z"/>
  <!-- r -->
  <path d="M84,11h3.5v3c1-2.2,2.8-3.5,5-3.5v4c-3,0-5,1.5-5,5V28H84V11z"/>
  <!-- d -->
  <path d="M98.5,10.5c4.5,0,7.5,3.5,7.5,8.8s-3,8.8-7.5,8.8c-2,0-3.8-.8-5-2.2V32h-3.5V11H94v2c1.2-1.8,3-2.5,4.5-2.5zm-.8,3.5c-2.5,0-4.2,2.2-4.2,5.3s1.7,5.3,4.2,5.3,4.2-2.2,4.2-5.3S100.2,14,97.7,14z"/>
  <!-- X (bigger, bolder) -->
  <path d="M112,4h5l6.5,10.5L130,4h5l-9,13,9.5,11h-5.2L124,18l-6.5,10H112.5l9.5-11L112,4z" fill-opacity=".95"/>
</svg>
