<svg xmlns="http://www.w3.org/2000/svg" viewBox="0 0 140 32" fill="white">
  <!-- K -->
  <path d="M4,4h4v10.5L17,4h5.5L13,15l10,13h-5.5L9,17.5V28H4V4z"/>
  <!-- E -->
  <path d="M23,4h12v3.5H27v6.5h7v3.5h-7v7h8V28H23V4z"/>
  <!-- E -->
  <path d="M38,4h12v3.5H42v6.5h7v3.5h-7v7h8V28H38V4z"/>
  <!-- N -->
  <path d="M53,4h4l9,16.5V4h4v24h-4L57,11.5V28h-4V4z"/>
  <!-- O -->
  <path d="M80,3.5c6.5,0,10.5,5,10.5,12.5S86.5,28.5,80,28.5s-10.5-5-10.5-12.5S73.5,3.5,80,3.5zm0,3.5c-3.8,0-6.5,3.5-6.5,9s2.7,9,6.5,9,6.5-3.5,6.5-9S83.8,7,80,7z"/>
  <!-- N -->
  <path d="M94,4h4l9,16.5V4h4v24h-4L98,11.5V28h-4V4z"/>
</svg>
